<?xml version="1.0" encoding="iso-8859-1"?>
<!-- Generator: Adobe Illustrator 19.0.0, SVG Export Plug-In . SVG Version: 6.00 Build 0)  -->
<svg version="1.1" id="Layer_1" xmlns="http://www.w3.org/2000/svg" xmlns:xlink="http://www.w3.org/1999/xlink" x="0px" y="0px"
	 viewBox="0 0 502 502" style="enable-background:new 0 0 502 502;" xml:space="preserve">
<g>
	<rect x="36.5" y="10" style="fill:#D1E2EB;" width="429" height="482"/>
	<g>
		<path style="fill:#4EC9DC;" d="M76,50v164.5l31.533-31.533l92.25,92.25L271.5,203.5L426,358V50H76z M205,162
			c-19.33,0-35-15.67-35-35s15.67-35,35-35s35,15.67,35,35S224.33,162,205,162z"/>
		<path d="M205,172c-24.813,0-45-20.187-45-45s20.187-45,45-45s45,20.187,45,45S229.813,172,205,172z M205,102
			c-13.785,0-25,11.215-25,25s11.215,25,25,25s25-11.215,25-25S218.785,102,205,102z"/>
	</g>
	<g>
		<path d="M465.5,0h-429c-5.523,0-10,4.477-10,10v482c0,5.523,4.477,10,10,10h429c5.523,0,10-4.477,10-10V10
			C475.5,4.477,471.023,0,465.5,0z M455.5,482h-409V20h409V482z"/>
		<path d="M66,357.768V358c0,5.523,4.477,10,10,10h350c5.523,0,10-4.477,10-10V50c0-5.523-4.477-10-10-10H76
			c-5.523,0-10,4.477-10,10V357.768z M185.641,275.217l-72.491,72.491L86,347.751V218.643l21.533-21.534L185.641,275.217z
			 M271.5,217.642l129.897,129.897l-260.215,0.422L271.5,217.642z M416,60v273.857L278.571,196.429
			c-3.905-3.905-10.237-3.905-14.143,0l-64.646,64.646l-85.179-85.179c-3.905-3.905-10.237-3.905-14.143,0L86,190.357V60H416z"/>
	</g>
	<g>
		<path d="M337.5,325.5c-2.559,0-5.119-0.976-7.071-2.929l-32.498-32.498c-3.905-3.905-3.905-10.237,0-14.143
			c3.905-3.905,10.237-3.905,14.143,0l32.498,32.498c3.905,3.905,3.905,10.237,0,14.143C342.619,324.524,340.059,325.5,337.5,325.5z
			"/>
	</g>
	<g>
		<path d="M281,269c-2.559,0-5.119-0.976-7.071-2.929l-6-6c-3.905-3.905-3.905-10.237,0-14.143c3.905-3.905,10.237-3.905,14.143,0
			l6,6c3.905,3.905,3.905,10.237,0,14.143C286.119,268.024,283.559,269,281,269z"/>
	</g>
</g>
<g>
</g>
<g>
</g>
<g>
</g>
<g>
</g>
<g>
</g>
<g>
</g>
<g>
</g>
<g>
</g>
<g>
</g>
<g>
</g>
<g>
</g>
<g>
</g>
<g>
</g>
<g>
</g>
<g>
</g>
</svg>
