<svg width="24" height="24" viewBox="0 0 24 24" fill="none" xmlns="http://www.w3.org/2000/svg">
<path d="M21.5455 5H2.45455C2.20138 5 1.95859 4.89464 1.77958 4.70711C1.60057 4.51957 1.5 4.26522 1.5 4C1.5 3.73478 1.60057 3.48043 1.77958 3.29289C1.95859 3.10536 2.20138 3 2.45455 3H21.5455C21.7986 3 22.0414 3.10536 22.2204 3.29289C22.3994 3.48043 22.5 3.73478 22.5 4C22.5 4.26522 22.3994 4.51957 22.2204 4.70711C22.0414 4.89464 21.7986 5 21.5455 5ZM22.5 12C22.5 11.7348 22.3994 11.4804 22.2204 11.2929C22.0414 11.1054 21.7986 11 21.5455 11H2.45455C2.20138 11 1.95859 11.1054 1.77958 11.2929C1.60057 11.4804 1.5 11.7348 1.5 12H1.5C1.5 12.2652 1.60057 12.5196 1.77958 12.7071C1.95859 12.8946 2.20138 13 2.45455 13H21.5455C21.7986 13 22.0414 12.8946 22.2204 12.7071C22.3994 12.5196 22.5 12.2652 22.5 12ZM22.5 20C22.5 19.7348 22.3994 19.4804 22.2204 19.2929C22.0414 19.1054 21.7986 19 21.5455 19H2.45455C2.20138 19 1.95859 19.1054 1.77958 19.2929C1.60057 19.4804 1.5 19.7348 1.5 20H1.5C1.5 20.2652 1.60057 20.5196 1.77958 20.7071C1.95859 20.8946 2.20138 21 2.45455 21H21.5455C21.7986 21 22.0414 20.8946 22.2204 20.7071C22.3994 20.5196 22.5 20.2652 22.5 20Z" fill="#fff"/>
</svg>
