<?xml version="1.0" encoding="iso-8859-1"?>
<!-- Generator: Adobe Illustrator 19.0.0, SVG Export Plug-In . SVG Version: 6.00 Build 0)  -->
<svg version="1.1" id="Layer_1" xmlns="http://www.w3.org/2000/svg" xmlns:xlink="http://www.w3.org/1999/xlink" x="0px" y="0px"
	 viewBox="0 0 512 512" style="enable-background:new 0 0 512 512;" xml:space="preserve">
<path style="fill:#D1D3D4;" d="M488.151,512H23.849C10.678,512,0,501.322,0,488.151V23.849C0,10.678,10.678,0,23.849,0h464.301
	C501.322,0,512,10.678,512,23.849v464.301C512,501.322,501.322,512,488.151,512z"/>
<path style="fill:#BCBEC0;" d="M488.151,0H256v512h232.151C501.322,512,512,501.322,512,488.151V23.849
	C512,10.678,501.322,0,488.151,0z"/>
<path style="fill:#48AEE2;" d="M389.915,413.769c-8.366,0-16.318-4.418-20.654-11.928l-62.834-108.844l-28.522,49.411
	c-4.261,7.379-12.135,11.925-20.654,11.926c-8.521,0-16.394-4.544-20.655-11.923l-13.672-23.679l-47.985,83.109
	c-4.261,7.379-12.133,11.925-20.654,11.925h-32.197c-13.171,0-23.849-10.678-23.849-23.849V122.089
	c0-13.171,10.678-23.849,23.849-23.849h267.829c13.171,0,23.849,10.678,23.849,23.849v267.829c0,10.794-7.252,20.243-17.677,23.037
	C394.037,413.503,391.963,413.769,389.915,413.769z"/>
<path style="fill:#39A3DB;" d="M389.916,98.239H256.002v256.052c0.415,0.022,0.83,0.041,1.25,0.041
	c8.519-0.002,16.394-4.546,20.654-11.926l28.522-49.411l62.834,108.844c4.336,7.509,12.289,11.928,20.654,11.928
	c2.048,0,4.123-0.266,6.174-0.816c10.427-2.794,17.677-12.243,17.677-23.037V122.089C413.766,108.917,403.088,98.239,389.916,98.239
	z"/>
<path style="fill:#1DA49C;" d="M410.573,377.993L327.084,233.37c-9.176-15.893-32.151-15.865-41.31,0l-29.77,51.57v91.068
	l14.922,25.835c4.261,7.377,12.133,11.922,20.652,11.922h98.341C408.268,413.766,419.728,393.856,410.573,377.993z"/>
<path style="fill:#F2C500;" d="M168.019,251.849c-38.94,0-69.787-27.637-69.787-45.274v-77.116c0-14.397,17.11-31.228,31.228-31.228
	h77.115c17.075,0,45.274,30.259,45.274,69.787C251.85,214.241,214.243,251.849,168.019,251.849z"/>
<path style="fill:#65C6BB;" d="M291.577,413.766H154.284c-18.351,0-29.813-19.911-20.654-35.774l68.639-118.882
	c9.176-15.892,32.147-15.865,41.309-0.002l68.653,118.878C321.408,393.88,309.897,413.766,291.577,413.766z"/>
<path style="fill:#D1D3D4;" d="M315.717,205.84h-29.602c-13.171,0-23.849-10.678-23.849-23.849s10.678-23.849,23.849-23.849h29.602
	c13.171,0,23.849,10.678,23.849,23.849C339.567,195.163,328.89,205.84,315.717,205.84z"/>
<path style="fill:#57BDB7;" d="M312.229,377.988l-56.227-97.363v133.14h35.574C309.93,413.766,321.392,393.853,312.229,377.988z"/>
<g>
</g>
<g>
</g>
<g>
</g>
<g>
</g>
<g>
</g>
<g>
</g>
<g>
</g>
<g>
</g>
<g>
</g>
<g>
</g>
<g>
</g>
<g>
</g>
<g>
</g>
<g>
</g>
<g>
</g>
</svg>
